<?xml version="1.0" encoding="UTF-8"?>
<svg width="550px" height="550px" viewBox="0 0 550 550" version="1.1" xmlns="http://www.w3.org/2000/svg" xmlns:xlink="http://www.w3.org/1999/xlink">
    <!-- Generator: Sketch 52.6 (67491) - http://www.bohemiancoding.com/sketch -->
    <title>Group 45</title>
    <desc>Created with Sketch.</desc>
    <g id="Page-1" stroke="none" stroke-width="1" fill="none" fill-rule="evenodd">
        <g id="Interests" transform="translate(-933.000000, -1926.000000)">
            <g id="Group-45" transform="translate(933.000000, 1926.000000)">
                <rect id="Rectangle" stroke="#FEBA40" stroke-width="10" fill="#FDF4DD" x="5" y="5" width="540" height="540" rx="270"></rect>
                <g id="Layers" transform="translate(87.000000, 127.000000)">
                    <path d="M177.788741,293.786143 L4.12184098,206.338785 C-1.37394699,203.755952 -1.37394699,196.007452 4.12184098,193.055642 L187.681159,100.811594 L371.240478,193.055642 C376.736266,195.638476 376.736266,203.386976 371.240478,206.338785 L197.573578,293.786143 C191.345018,296.737952 184.017301,296.737952 177.788741,293.786143 Z" id="Path" fill="#9BE2A4"></path>
                    <path d="M180.535772,267.515196 L50.1885399,201.70227 C47.6183128,200.214973 47.6183128,196.496728 50.1885399,195.009431 L187.144928,125.478261 L324.101315,195.009431 C326.671542,196.496728 326.671542,200.214973 324.101315,201.70227 L193.754083,267.515196 C189.715155,269.746142 184.5747,269.746142 180.535772,267.515196 Z" id="Path" fill="#72BE8B"></path>
                    <path d="M179.943315,180.93896 L59.8859376,121.356087 C54.3955087,118.812916 54.3955087,111.183402 59.8859376,108.27692 L189.826087,43.9710145 L319.766236,108.64023 C325.256665,111.183402 325.256665,118.812916 319.766236,121.719398 L199.708859,180.93896 C193.486373,184.208752 186.165801,184.208752 179.943315,180.93896 Z" id="Path" fill="#FFCD00"></path>
                    <path d="M180.045623,157.333599 L101.65336,117.271676 C99.1010539,115.787902 99.1010539,112.078464 101.65336,110.594689 L186.608696,67.5652174 L271.564031,110.965633 C274.116337,112.449408 274.116337,116.158845 271.564031,117.64262 L193.171769,157.333599 C189.161002,159.188317 184.056389,159.188317 180.045623,157.333599 Z" id="Path" fill="#F08100" opacity="0.41"></path>
                    <g id="Group" opacity="0.58" transform="translate(109.391304, 40.753623)" stroke="#FFFFFF" stroke-linecap="round" stroke-linejoin="round">
                        <g id="Path">
                            <path d="M1.78743961,0.823137623 L1.78743961,4.45462713"></path>
                            <path d="M1.78743961,14.9859467 L1.78743961,62.9216083" stroke-dasharray="1.9515,2.9272"></path>
                            <path d="M1.78743961,68.0056936 L1.78743961,71.6371831"></path>
                        </g>
                    </g>
                    <g id="Group" opacity="0.58" transform="translate(55.768116, 112.608696)" stroke="#FFFFFF" stroke-linecap="round" stroke-linejoin="round">
                        <g id="Path">
                            <path d="M2.68115942,0.226976459 L2.68115942,3.91534392"></path>
                            <path d="M2.68115942,13.873936 L2.68115942,76.9450196" stroke-dasharray="1.8418,2.7627"></path>
                            <path d="M2.68115942,81.7398972 L2.68115942,85.4282647"></path>
                        </g>
                    </g>
                    <g id="Group" opacity="0.58" transform="translate(317.449275, 112.608696)" stroke="#FFFFFF" stroke-linecap="round" stroke-linejoin="round">
                        <g id="Path">
                            <path d="M2.50241546,0.226976459 L2.50241546,3.91534392"></path>
                            <path d="M2.50241546,13.873936 L2.50241546,76.9450196" stroke-dasharray="1.8418,2.7627"></path>
                            <path d="M2.50241546,81.7398972 L2.50241546,85.4282647"></path>
                        </g>
                    </g>
                    <g id="Group" opacity="0.58" transform="translate(186.608696, 178.028986)" stroke="#FFFFFF" stroke-linecap="round" stroke-linejoin="round">
                        <g id="Path">
                            <path d="M2.14492754,0.113488229 L2.14492754,3.80185569"></path>
                            <path d="M2.14492754,13.7604478 L2.14492754,76.8315313" stroke-dasharray="1.8418,2.7627"></path>
                            <path d="M2.14492754,81.9952458 L2.14492754,85.6836132"></path>
                        </g>
                    </g>
                    <g id="Group" opacity="0.58" transform="translate(265.971014, 40.753623)" stroke="#FFFFFF" stroke-linecap="round" stroke-linejoin="round">
                        <g id="Path">
                            <path d="M2.50241546,0.823137623 L2.50241546,4.45462713"></path>
                            <path d="M2.50241546,14.9859467 L2.50241546,62.9216083" stroke-dasharray="1.9515,2.9272"></path>
                            <path d="M2.50241546,68.0056936 L2.50241546,71.6371831"></path>
                        </g>
                    </g>
                    <g id="Group" opacity="0.58" transform="translate(186.608696, 77.217391)" stroke="#FFFFFF" stroke-linecap="round" stroke-linejoin="round">
                        <g id="Path">
                            <path d="M2.14492754,0.823137623 L2.14492754,4.45462713"></path>
                            <path d="M2.14492754,14.9859467 L2.14492754,62.9216083" stroke-dasharray="1.9515,2.9272"></path>
                            <path d="M2.14492754,68.0056936 L2.14492754,71.6371831"></path>
                        </g>
                    </g>
                    <path d="M177.142345,83.6158192 L107.124265,49.4423974 C101.567274,46.8975682 101.567274,39.2630803 107.124265,36.354704 L177.142345,2.18128224 C183.440267,-0.72709408 190.849588,-0.72709408 197.14751,2.18128224 L267.16559,36.354704 C272.722581,38.8995333 272.722581,46.5340211 267.16559,49.4423974 L197.14751,83.6158192 C190.849588,86.5241955 183.440267,86.5241955 177.142345,83.6158192 Z" id="Path" fill="#8C4AFF"></path>
                    <path d="M180.619888,65.2385163 L138.698235,45.5887988 C135.37112,44.125522 135.37112,39.7356915 138.698235,38.0633751 L180.619888,18.4136576 C184.390619,16.7413412 188.826773,16.7413412 192.597503,18.4136576 L234.519156,38.0633751 C237.846272,39.5266519 237.846272,43.9164824 234.519156,45.5887988 L192.597503,65.2385163 C188.826773,66.9108327 184.390619,66.9108327 180.619888,65.2385163 Z" id="Path-Copy" fill="#6333B5"></path>
                </g>
            </g>
        </g>
    </g>
</svg>