<?xml version="1.0" encoding="UTF-8"?>
<svg width="550px" height="550px" viewBox="0 0 550 550" version="1.1" xmlns="http://www.w3.org/2000/svg" xmlns:xlink="http://www.w3.org/1999/xlink">
    <!-- Generator: Sketch 52.6 (67491) - http://www.bohemiancoding.com/sketch -->
    <title>Group 48</title>
    <desc>Created with Sketch.</desc>
    <g id="Page-1" stroke="none" stroke-width="1" fill="none" fill-rule="evenodd">
        <g id="Interests" transform="translate(-206.000000, -1925.000000)">
            <g id="Group-48" transform="translate(206.000000, 1925.000000)">
                <g id="Group-43" fill="#DDFFED" stroke="#56CD8C" stroke-width="10">
                    <rect id="Rectangle" x="5" y="5" width="540" height="540" rx="270"></rect>
                </g>
                <g id="Group-19" transform="translate(144.000000, 110.000000)">
                    <g id="Group-18" transform="translate(35.333790, 35.532202)">
                        <g id="Bulb">
                            <path d="M47.1891487,216.502161 L143.935588,216.502161 C144.604407,207.372166 146.653766,195.497632 152.423269,187.858248 C188.123016,141.99173 190.404569,98.3107708 190.404569,95.2187591 C190.404569,42.9818911 147.991403,0.673200674 95.634298,0.673200674 C43.2797173,0.673200674 0.876645943,42.9818911 0.876645943,95.2187591 C0.876645943,98.3107708 3.09510316,141.974105 38.8428028,187.858248 C44.5845436,195.497632 46.5708074,207.372166 47.1891487,216.502161" id="Fill-112" fill="#9BE2A4"></path>
                            <g id="Group-15" transform="translate(33.768074, 133.510110)" fill="#72BE8B">
                                <polyline id="Fill-113" points="40.4034704 80.99473 21.6387043 0.879670508 14.1883224 1.91253641 32.9530885 82.0275959"></polyline>
                                <polyline id="Fill-114" points="90.8020736 82.0275959 109.561792 1.91246229 102.11141 0.879670508 83.3516916 80.9948041"></polyline>
                                <polyline id="Fill-115" points="17.2522667 12.8045624 31.7012628 17.840412 34.1998665 17.840412 47.4020846 13.2401634 60.5967312 17.840412 63.0953349 17.840412 76.3051245 13.2401634 89.5250095 17.840412 92.0185655 17.840412 106.4928 12.8045624 103.999244 5.67379933 90.7717875 10.2740479 77.5519025 5.67379933 75.0558226 5.67379933 61.8485569 10.2740479 48.6539103 5.67379933 46.1553066 5.67379933 32.9505647 10.2740479 19.7508704 5.67379933 17.2547906 12.8045624"></polyline>
                                <polygon id="Fill-116" points="0.254190104 87.8843785 123.488353 87.8843785 123.488353 80.3306041 0.254190104 80.3306041"></polygon>
                                <polygon id="Fill-117" points="0.254190104 111.769413 123.488353 111.769413 123.488353 104.215639 0.254190104 104.215639"></polygon>
                                <polygon id="Fill-118" points="0.254190104 135.656966 123.488353 135.656966 123.488353 128.103191 0.254190104 128.103191"></polygon>
                                <polygon id="Fill-119" points="17.0125017 159.534447 106.732565 159.534447 106.732565 151.980672 17.0125017 151.980672"></polygon>
                                <polygon id="Fill-120" points="10.7710402 130.764638 18.3425665 130.764638 18.3425665 85.3790433 10.7710402 85.3790433"></polygon>
                            </g>
                        </g>
                        <g id="Brain" transform="translate(24.851663, 26.587833)">
                            <path d="M34.2397362,67.1756589 C34.2397362,76.4382471 26.7084668,83.9462301 17.4171503,83.9462301 C8.1258338,83.9462301 0.593979132,76.4382471 0.593979132,67.1756589 C0.593979132,57.9136542 8.1258338,50.4050876 17.4171503,50.4050876 C26.7084668,50.4050876 34.2397362,57.9136542 34.2397362,67.1756589" id="Fill-55" fill="#F8AD00"></path>
                            <path d="M38.5811242,45.5362121 C38.5811242,54.7988003 31.0492695,62.3067833 21.7585383,62.3067833 C12.4672218,62.3067833 4.93536714,54.7988003 4.93536714,45.5362121 C4.93536714,36.2742074 12.4672218,28.7656409 21.7585383,28.7656409 C31.0492695,28.7656409 38.5811242,36.2742074 38.5811242,45.5362121" id="Fill-56" fill="#F8AD00"></path>
                            <path d="M52.6906352,32.5531275 C52.6906352,41.8153935 45.1587806,49.3231153 35.867464,49.3231153 C26.5767328,49.3231153 19.0448782,41.8153935 19.0448782,32.5531275 C19.0448782,23.2908616 26.5767328,15.7819728 35.867464,15.7819728 C45.1587806,15.7819728 52.6906352,23.2908616 52.6906352,32.5531275" id="Fill-57" fill="#F8AD00"></path>
                            <path d="M68.9708402,21.7325289 C68.9708402,30.9952783 61.4389856,38.5033919 52.1476691,38.5033919 C42.8569379,38.5033919 35.3250832,30.9952783 35.3250832,21.7325289 C35.3250832,12.4715301 42.8569379,4.96224941 52.1476691,4.96224941 C61.4389856,4.96224941 68.9708402,12.4715301 68.9708402,21.7325289" id="Fill-58" fill="#F8AD00"></path>
                            <path d="M88.5070863,17.405223 C88.5070863,26.6670666 80.9756859,34.1755025 71.6842078,34.1755025 C62.3933149,34.1755025 54.8613292,26.6670666 54.8613292,17.405223 C54.8613292,8.14221247 62.3933149,0.634360055 71.6842078,0.634360055 C80.9756859,0.634360055 88.5070863,8.14221247 88.5070863,17.405223" id="Fill-59" fill="#F8AD00"></path>
                            <path d="M108.043332,21.7325289 C108.043332,30.9952783 100.511478,38.5033919 91.2201611,38.5033919 C81.9294299,38.5033919 74.3975753,30.9952783 74.3975753,21.7325289 C74.3975753,12.4715301 81.9294299,4.96224941 91.2201611,4.96224941 C100.511478,4.96224941 108.043332,12.4715301 108.043332,21.7325289" id="Fill-60" fill="#F8AD00"></path>
                            <path d="M126.494231,32.5531275 C126.494231,41.8145487 118.962246,49.3231153 109.671353,49.3231153 C100.38046,49.3231153 92.8484743,41.8145487 92.8484743,32.5531275 C92.8484743,23.2899558 100.38046,15.7819728 109.671353,15.7819728 C118.962246,15.7819728 126.494231,23.2899558 126.494231,32.5531275" id="Fill-61" fill="#F8AD00"></path>
                            <path d="M139.518395,45.5356286 C139.518395,54.798478 131.986541,62.3067833 122.695224,62.3067833 C113.404493,62.3067833 105.872638,54.798478 105.872638,45.5356286 C105.872638,36.2745296 113.404493,28.7656409 122.695224,28.7656409 C131.986541,28.7656409 139.518395,36.2745296 139.518395,45.5356286" id="Fill-62" fill="#F8AD00"></path>
                            <path d="M142.774436,67.1756589 C142.774436,76.4382471 135.242582,83.9462301 125.951265,83.9462301 C116.660534,83.9462301 109.128679,76.4382471 109.128679,67.1756589 C109.128679,57.9136542 116.660534,50.4050876 125.951265,50.4050876 C135.242582,50.4050876 142.774436,57.9136542 142.774436,67.1756589" id="Fill-63" fill="#F8AD00"></path>
                            <path d="M117.811455,81.2412993 C117.811455,90.5035652 110.27947,98.0118705 100.988577,98.0118705 C91.6970986,98.0118705 84.1656983,90.5035652 84.1656983,81.2412993 C84.1656983,71.9796168 91.6970986,64.470728 100.988577,64.470728 C110.27947,64.470728 117.811455,71.9796168 117.811455,81.2412993" id="Fill-64" fill="#F8AD00"></path>
                            <polygon id="Fill-65" fill="#F8AD00" points="17.9595312 82.8642578 128.664925 82.8642578 128.664925 32.0115579 17.9595312 32.0115579"></polygon>
                            <path d="M70.0561873,83.4490638 C70.4145694,83.3949652 70.7756717,83.3614241 71.1415343,83.3614241 L70.0561873,83.3614241 L70.0561873,83.4490638" id="Fill-66" fill="#F8AD00"></path>
                            <path d="M71.1415343,82.8642578 C76.3239074,82.8642578 80.5843195,87.0299389 81.0886156,92.3632022 L81.105827,92.3632022 L82.0840122,98.0118705 L101.53125,98.0118705 L101.53125,82.8642578 L71.1415343,82.8642578" id="Fill-67" fill="#F8AD00"></path>
                            <g id="Left-Gear" transform="translate(16.814547, 44.879964)" fill="#8C4AFF">
                                <path d="M4.29041321,8.61655245 L5.14815275,8.61655245 C5.14872458,7.76671612 5.49525135,7.00524026 6.0602158,6.4480628 C6.6263239,5.89201095 7.40000497,5.550388 8.26289096,5.54982519 C9.12520511,5.550388 9.89888618,5.89201095 10.4649943,6.4480628 C11.0299587,7.00524026 11.3770573,7.76671612 11.3770573,8.61655245 C11.3770573,9.46582597 11.0299587,10.2273018 10.4649943,10.7844793 C9.89888618,11.3405311 9.12520511,11.6821541 8.26289096,11.6827169 C7.40000497,11.6821541 6.6263239,11.3405311 6.0602158,10.7844793 C5.49525135,10.2273018 5.14872458,9.46582597 5.14815275,8.61655245 L3.43267366,8.61655245 C3.43324549,11.242603 5.59474914,13.3705706 8.26289096,13.3711334 C10.9304609,13.3705706 13.0925364,11.242603 13.0925364,8.61655245 C13.0925364,5.98993911 10.9304609,3.86197145 8.26289096,3.86140865 C5.59474914,3.86197145 3.43324549,5.98993911 3.43267366,8.61655245 L4.29041321,8.61655245" id="Fill-72"></path>
                                <polygon id="Fill-73" points="7.40515141 17.0653889 9.1206305 17.0653889 9.1206305 13.3683194 7.40515141 13.3683194"></polygon>
                                <polygon id="Fill-74" points="7.40515141 3.86365987 9.1206305 3.86365987 9.1206305 0.166590433 7.40515141 0.166590433"></polygon>
                                <polyline id="Fill-75" points="12.0157874 11.7238017 15.2689076 13.5726178 16.1272189 12.1104491 12.8735269 10.261633"></polyline>
                                <polyline id="Fill-76" points="0.398562975 5.122093 3.65168316 6.97090912 4.5094227 5.50874039 1.25630252 3.65992427"></polyline>
                                <polyline id="Fill-77" points="12.8735269 6.97090912 16.1266471 5.122093 15.2694794 3.65992427 12.0157874 5.50874039"></polyline>
                                <polyline id="Fill-78" points="1.25630252 13.5726178 4.5094227 11.7238017 3.65168316 10.261633 0.398562975 12.1104491"></polyline>
                            </g>
                            <g id="Brain-Gear" transform="translate(68.814547, 20.879964)" fill="#72BE8B">
                                <g id="Group-44" transform="translate(26.974956, 29.101002)">
                                    <polyline id="Fill-88" points="6.74373892 35.8166183 0.1825391 35.8160067 0 33.5780797 6.74373892 33.5780797 6.74373892 35.8166183"></polyline>
                                    <path d="M33.7186946,7.83488526 L33.7186946,0 C34.8902201,0.180173941 36.0191547,0.484217466 37.090564,0.898188544 L37.0900109,7.56247942 L33.7186946,7.83488526" id="Fill-85"></path>
                                    <polyline id="Fill-86" points="8.86458978 35.8166183 6.74373892 35.8166183 6.74373892 33.5780797 8.99165189 33.5780797 8.86458978 35.8166183"></polyline>
                                </g>
                                <path d="M36.2326051,62.6790821 L33.4484068,62.6790821 L33.4484068,62.4262313 L26.8778393,62.4262313 L26.3688558,56.3169343 C23.547215,55.639551 20.8250308,54.4541302 18.3421274,52.7676792 L12.2009781,57.9537494 L5.82464341,51.5892658 L11.1800859,45.2703304 C9.61686304,42.7196318 8.55852838,39.9487836 8.01385752,37.0979341 L0.000585038511,36.4310619 L0,27.428871 L8.26132881,26.7433123 C8.94114356,23.926332 10.1276017,21.2080394 11.8177779,18.7297507 L6.62088083,12.5994316 L8.0302386,11.1926932 L18.8669069,11.1926932 L19.3285023,11.5821886 C19.5467217,11.4484638 19.7666962,11.3188267 19.9890108,11.1926932 L44.2722043,11.1926932 C44.8309161,11.5103627 45.3802672,11.8519741 45.9185026,12.2175275 L47.1312875,11.1926932 L56.2292214,11.1926932 L58.4365717,13.395357 L53.0799591,19.7148763 C54.644352,22.264991 55.7026867,25.0346713 56.2467725,27.8878566 L60.6936502,28.2580816 L60.6936502,37.852399 L55.9969611,38.2430623 C55.3206566,41.0600427 54.1318583,43.7759995 52.4434372,46.2548721 L57.6391642,52.3851912 L51.2610743,58.7490909 L44.9309576,53.4030181 C42.3772645,54.9656714 39.5995017,56.0197032 36.7433437,56.5639457 L36.2326051,62.6790821 M32.1291449,22.5073307 C29.5696015,22.5073307 27.010058,23.4819452 25.0571994,25.4317581 C21.1503122,29.3307999 21.1508973,35.653239 25.0571994,39.5528647 C27.010058,41.5020937 29.5696015,42.4767081 32.1291449,42.4767081 C34.6892735,42.4767081 37.249987,41.5015097 39.2028456,39.5516968 C43.1097328,35.6520711 43.1097328,29.3307999 39.2028456,25.432926 C37.249402,23.4825291 34.6892735,22.5073307 32.1291449,22.5073307" id="Fill-87"></path>
                                <g id="Group-42" transform="translate(8.991652, 0.000000)">
                                    <path d="M2.24791297,11.1926932 L0,11.1926932 L1.30869281,10.0734239 C1.60737863,10.4553792 1.92160302,10.828469 2.24791297,11.1926932" id="Fill-81"></path>
                                    <path d="M15.6347862,11.1926932 L11.2659279,11.1926932 C12.6999897,10.286888 14.1977479,9.5505093 15.7353908,8.98421624 C15.6687179,9.66258126 15.6347862,10.3528127 15.6347862,11.0509552 C15.6347862,11.0977617 15.6347862,11.1452275 15.6347862,11.1926932 M10.1241551,11.1926932 L0.647679234,11.1926932 C0.422658324,10.8676845 0.205971521,10.5347649 0,10.1939342 L4.15217156,5.59634662 L10.1241551,11.1926932" id="Fill-82"></path>
                                    <path d="M35.9178535,11.1926932 L15.7353908,11.1926932 C15.7353908,11.1489979 15.7353908,11.1053025 15.7353908,11.062214 C15.7353908,10.4195277 15.7690597,9.78412407 15.8352163,9.15964425 C16.8736373,8.80461928 17.9309602,8.52241995 18.999506,8.31243936 L19.6746569,0 L28.7812194,0 L29.4758628,8.56854285 C31.7074638,9.12080391 33.8770431,9.99653218 35.9178535,11.1926932 M41.8134622,8.57643229 L43.7804372,6.86685051 L44.9582594,8.07696981 C43.879672,8.14372664 42.8288466,8.31304624 41.8134622,8.57643229" id="Fill-83"></path>
                                    <path d="M55.073292,30.2202717 C53.9579344,29.7637168 52.7826918,29.4283973 51.5631113,29.2296894 L51.5631113,28.1539466 L55.0738678,28.4543739 L55.073292,30.2202717 M47.1690514,10.871094 L38.2145205,10.871094 L41.1477326,8.32160124 C42.1375621,8.06493692 43.1619406,7.89993843 44.2133825,7.83488526 L47.1690514,10.871094" id="Fill-84"></path>
                                </g>
                            </g>
                            <path d="M14.2776446,49.1988497 C14.5203628,48.5075709 14.8192711,47.8426099 15.1703147,47.2109846 L13.6543395,46.353027 C13.2557951,47.0712083 12.9151786,47.8268193 12.6394414,48.6140115 L14.2776446,49.1988497 Z M16.384485,45.4038346 C16.8392196,44.8371264 17.3408759,44.3101872 17.8830818,43.8288653 L16.7361078,42.51064 C16.1203335,43.0574637 15.5503222,43.6557532 15.0341839,44.2996601 L16.384485,45.4038346 Z M19.6220796,42.5316942 C20.233799,42.1515493 20.8791167,41.8228703 21.5522398,41.5509205 L20.9063428,39.9221461 C20.140535,40.2315255 19.4065875,40.605822 18.7120311,41.0368477 L19.6220796,42.5316942 Z M23.6196892,40.9157862 C24.3154042,40.7666525 25.0319733,40.674248 25.7653414,40.6450061 L25.6958279,38.8916612 C24.8639821,38.9255818 24.0495148,39.029683 23.2582186,39.1998709 L23.6196892,40.9157862 Z M28.0436487,40.634479 L30.3567128,40.634479 L30.3567128,38.8799644 L28.0436487,38.8799644 L28.0436487,40.634479 Z M32.6697769,40.634479 L34.9828409,40.634479 L34.9828409,38.8799644 L32.6697769,38.8799644 L32.6697769,40.634479 Z M37.295905,40.634479 L39.6089691,40.634479 L39.6089691,38.8799644 L37.295905,38.8799644 L37.295905,40.634479 Z M41.9220332,40.634479 L44.2350972,40.634479 L44.2350972,38.8799644 L41.9220332,38.8799644 L41.9220332,40.634479 Z M46.5481613,40.634479 L48.8618047,40.634479 L48.8618047,38.8799644 L46.5481613,38.8799644 L46.5481613,40.634479 Z M51.1748687,40.634479 L53.4879328,40.634479 L53.4879328,38.8799644 L51.1748687,38.8799644 L51.1748687,40.634479 Z M55.8009969,40.634479 L58.1140609,40.634479 L58.1140609,38.8799644 L55.8009969,38.8799644 L55.8009969,40.634479 Z M60.427125,40.634479 L62.7401891,40.634479 L62.7401891,38.8799644 L60.427125,38.8799644 L60.427125,40.634479 Z M65.0532532,40.634479 L67.3663172,40.634479 L67.3663172,38.8799644 L65.0532532,38.8799644 L65.0532532,40.634479 Z M69.6793813,40.634479 L71.9924454,40.634479 L71.9924454,38.8799644 L69.6793813,38.8799644 L69.6793813,40.634479 Z M74.3055094,40.634479 L76.6191528,40.634479 L76.6191528,38.8799644 L74.3055094,38.8799644 L74.3055094,40.634479 Z M78.9322169,40.634479 L81.2452809,40.634479 L81.2452809,38.8799644 L78.9322169,38.8799644 L78.9322169,40.634479 Z M83.558345,40.634479 L85.8714091,40.634479 L85.8714091,38.8799644 L83.558345,38.8799644 L83.558345,40.634479 Z M88.1844732,40.634479 L90.4975372,40.634479 L90.4975372,38.8799644 L88.1844732,38.8799644 L88.1844732,40.634479 Z M92.8106013,40.634479 L95.1236654,40.634479 L95.1236654,38.8799644 L92.8106013,38.8799644 L92.8106013,40.634479 Z M97.4367295,40.634479 L99.7497935,40.634479 L99.7497935,38.8799644 L97.4367295,38.8799644 L97.4367295,40.634479 Z M102.029839,40.6438365 C102.763786,40.6719087 103.480355,40.7625586 104.17607,40.9105227 L104.534065,39.1934377 C103.742769,39.0250043 102.927722,38.9226576 102.095877,38.8904915 L102.030418,40.6438365 L102.029839,40.6438365 Z M106.245837,41.5409783 C106.920698,41.8123432 107.566595,42.1398526 108.179473,42.5188277 L109.087204,41.0228116 C108.39091,40.5923707 107.655804,40.2192439 106.888837,39.9110342 L106.245837,41.5409783 Z M109.921367,43.8130747 C110.464731,44.2932268 110.966967,44.8189964 111.42286,45.3851198 L112.771423,44.2780211 C112.253547,43.6352839 111.682957,43.0381641 111.066024,42.4930949 L109.921367,43.8130747 Z M112.639927,47.1893456 C112.99155,47.8198012 113.292196,48.4835926 113.536072,49.1737017 L115.173117,48.5853544 C114.895642,47.7993319 114.553867,47.0448906 114.154164,46.3284638 L112.639927,47.1893456 Z M114.084071,51.2843827 C114.205141,51.9908673 114.268861,52.7178212 114.27002,53.4599809 L116.007859,53.4564718 C116.006121,52.6148897 115.933711,51.7890981 115.796422,50.9855304 L114.084071,51.2843827 Z M114.09276,55.6361638 C113.971691,56.3631177 113.790376,57.0690174 113.553451,57.7491842 L115.193392,58.3305134 C115.462178,57.5573573 115.668981,56.7537896 115.806849,55.9274132 L114.09276,55.6361638 Z M112.664836,59.7388038 C112.312054,60.3774471 111.906559,60.9827547 111.45472,61.5482932 L112.807339,62.6501284 C113.32058,62.0073912 113.781108,61.3196215 114.182549,60.5938373 L112.664836,59.7388038 Z M109.95902,63.1267715 C109.419131,63.6080934 108.838114,64.0437978 108.222339,64.4274517 L109.136443,65.9199588 C109.835633,65.4836695 110.495433,64.9888964 111.10889,64.4420727 L109.95902,63.1267715 Z M106.294496,65.4129041 C105.6318,65.6825145 104.941299,65.8971501 104.228785,66.0521322 L104.593731,67.7674627 C105.404143,67.5914264 106.190226,67.346964 106.943869,67.039924 L106.294496,65.4129041 Z M102.083712,66.327591 C101.903556,66.3351939 101.722241,66.338703 101.539768,66.338703 L99.8071422,66.338703 L99.8071422,68.0932176 L101.539768,68.0932176 C101.746571,68.0932176 101.952215,68.0891237 102.156701,68.0803511 L102.083712,66.327591 Z M95.1810141,68.0932176 L97.4940782,68.0932176 L97.4940782,66.338703 L95.1810141,66.338703 L95.1810141,68.0932176 Z M90.5548859,68.0932176 L92.86795,68.0932176 L92.86795,66.338703 L90.5548859,66.338703 L90.5548859,68.0932176 Z M85.9287578,68.0932176 L88.2418219,68.0932176 L88.2418219,66.338703 L85.9287578,66.338703 L85.9287578,68.0932176 Z M81.3026296,68.0932176 L83.6156937,68.0932176 L83.6156937,66.338703 L81.3026296,66.338703 L81.3026296,68.0932176 Z M76.6759222,68.0932176 L78.9895656,68.0932176 L78.9895656,66.338703 L76.6759222,66.338703 L76.6759222,68.0932176 Z M72.0497941,68.0932176 L74.3628581,68.0932176 L74.3628581,66.338703 L72.0497941,66.338703 L72.0497941,68.0932176 Z M67.4236659,68.0932176 L69.73673,68.0932176 L69.73673,66.338703 L67.4236659,66.338703 L67.4236659,68.0932176 Z M62.7975378,68.0932176 L65.1106019,68.0932176 L65.1106019,66.338703 L62.7975378,66.338703 L62.7975378,68.0932176 Z M58.1714096,68.0932176 L60.4844737,68.0932176 L60.4844737,66.338703 L58.1714096,66.338703 L58.1714096,68.0932176 Z M53.5452815,68.0932176 L55.8583456,68.0932176 L55.8583456,66.338703 L53.5452815,66.338703 L53.5452815,68.0932176 Z M48.9185741,68.0932176 L51.2322174,68.0932176 L51.2322174,66.338703 L48.9185741,66.338703 L48.9185741,68.0932176 Z M44.2924459,68.0932176 L46.60551,68.0932176 L46.60551,66.338703 L44.2924459,66.338703 L44.2924459,68.0932176 Z M39.6663178,68.0932176 L41.9793818,68.0932176 L41.9793818,66.338703 L39.6663178,66.338703 L39.6663178,68.0932176 Z M35.0401896,68.0932176 L37.3532537,68.0932176 L37.3532537,66.338703 L35.0401896,66.338703 L35.0401896,68.0932176 Z M30.4140615,68.0932176 L32.7271256,68.0932176 L32.7271256,66.338703 L30.4140615,66.338703 L30.4140615,68.0932176 Z M28.1009974,66.338703 L26.282059,66.338703 C26.126812,66.338703 25.9727236,66.3363636 25.8192144,66.3305152 L25.7572315,68.0838602 C25.9310154,68.0902934 26.1065372,68.0932176 26.282059,68.0932176 L28.1009974,68.0932176 L28.1009974,66.338703 Z M23.6724037,66.0685077 C22.9581517,65.9187891 22.2659124,65.7076625 21.6008993,65.442146 L20.9619537,67.0738446 C21.7179138,67.3756211 22.5057342,67.6154048 23.3178845,67.7861775 L23.6724037,66.0685077 Z M19.6661049,64.4689752 C19.0480134,64.0882455 18.4640994,63.6560501 17.9213142,63.1782373 L16.7789746,64.5005565 C17.3959075,65.0432863 18.0586035,65.5345504 18.7612699,65.9667459 L19.6655256,64.4689752 L19.6661049,64.4689752 Z M16.4163454,61.6091164 C15.9610315,61.0459172 15.55206,60.4435339 15.195803,59.8072299 L13.6833035,60.6716208 C14.0887994,61.3944808 14.5533817,62.0793263 15.0700993,62.7185545 L16.4163454,61.6091164 Z M14.2956022,57.8246284 C14.0546218,57.1462161 13.868673,56.441486 13.7429693,55.7157018 L12.0311977,56.0174783 C12.1742798,56.8432699 12.3857169,57.645083 12.6597162,58.4164846 L14.2956022,57.8246284 Z M13.5523863,53.5401037 L13.5523863,53.4862986 C13.5523863,52.7441389 13.6149485,52.017185 13.7337009,51.3107005 L12.0207706,51.015942 C11.8852192,51.8195097 11.814547,52.6447164 11.814547,53.4862986 L11.814547,53.5477066 L13.5523863,53.5401037 Z" id="Fill-90" fill="#6333B5"></path>
                            <g id="Key" transform="translate(71.814547, 45.379964)" fill="#6333B5">
                                <polygon id="Fill-199" points="0.198799036 8.64245485 25.5906982 8.64245485 25.5906982 6.95039947 0.198799036 6.95039947"></polygon>
                                <polygon id="Fill-200" points="1.7850984 12.0000567 3.53920754 12.0000567 3.53920754 7.79642716 1.7850984 7.79642716"></polygon>
                                <polygon id="Fill-201" points="7.84846899 12.0000567 9.60257813 12.0000567 9.60257813 7.79642716 7.84846899 7.79642716"></polygon>
                                <polygon id="Fill-202" points="4.81619899 10.3553789 6.57030813 10.3553789 6.57030813 7.79642716 4.81619899 7.79642716"></polygon>
                                <path d="M26.5765076,7.99101353 L26.5765076,7.14498584 C25.7935902,7.14442182 25.0931159,6.84154391 24.579162,6.34689972 C24.0669621,5.85169151 23.7523918,5.17543338 23.7523918,4.41964864 C23.7523918,3.66499195 24.0669621,2.98986185 24.579162,2.49408963 C25.0931159,2.00000946 25.7935902,1.69713154 26.5765076,1.69656752 C27.3594249,1.69713154 28.0598992,2.00000946 28.5738532,2.49408963 C29.086053,2.98986185 29.4000386,3.66499195 29.4006233,4.41964864 C29.4000386,5.1759974 29.086053,5.85169151 28.5732685,6.34689972 C28.0598992,6.84154391 27.3594249,7.14442182 26.5765076,7.14498584 L26.5765076,8.83704121 C29.1053482,8.8364772 31.1541477,6.86072053 31.1547324,4.41964864 C31.1541477,1.98026881 29.1047635,0.00507616613 26.5765076,0.00451214767 C24.0482516,0.00507616613 21.9982827,1.98026881 21.9982827,4.41964864 C21.9982827,6.86072053 24.0476669,8.8364772 26.5765076,8.83704121 L26.5765076,7.99101353" id="Fill-203"></path>
                                <path d="M26.5765076,15.2905404 L26.5765076,14.4445127 C25.7935902,14.4439487 25.0931159,14.1410708 24.579162,13.6464266 C24.0669621,13.1506544 23.7523918,12.4749603 23.7523918,11.7203036 C23.7523918,10.9656469 24.0669621,10.2893887 24.579162,9.79361652 C25.0937006,9.29897233 25.7941749,8.9955304 26.5765076,8.9955304 C27.3588402,8.9955304 28.0593145,9.29897233 28.5732685,9.79361652 C29.086053,10.2893887 29.4000386,10.9656469 29.4006233,11.7203036 C29.4000386,12.4755243 29.086053,13.1506544 28.5732685,13.6464266 C28.0598992,14.1410708 27.3594249,14.4439487 26.5765076,14.4445127 L26.5765076,16.1365681 C29.1053482,16.1360041 31.1541477,14.1596834 31.1547324,11.7203036 C31.1541477,9.28092374 29.1059329,7.30403904 26.5765076,7.30347502 C24.0470822,7.30403904 21.9988674,9.28092374 21.9982827,11.7203036 C21.9988674,14.1596834 24.0476669,16.1360041 26.5765076,16.1365681 L26.5765076,15.2905404" id="Fill-204"></path>
                                <path d="M33.3210572,11.640777 L33.3210572,10.7947493 C32.5387245,10.7941853 31.8382503,10.4907433 31.3242963,9.99666317 C30.8120964,9.50089094 30.4975262,8.82519683 30.4969415,8.07054013 C30.4975262,7.31531941 30.8120964,6.6396253 31.3242963,6.14441709 C31.8382503,5.6497729 32.5387245,5.34689499 33.3210572,5.34633097 C34.1039746,5.34689499 34.8044488,5.6497729 35.3184028,6.14441709 C35.8311874,6.6396253 36.1451729,7.31531941 36.1457576,8.07054013 C36.1451729,8.82519683 35.8311874,9.50089094 35.3184028,9.99666317 C34.8044488,10.4907433 34.1039746,10.7941853 33.3210572,10.7947493 L33.3210572,12.4868047 C35.8498979,12.4862406 37.8992821,10.50992 37.8998668,8.07054013 C37.8992821,5.63059628 35.8498979,3.65483961 33.3210572,3.6542756 C30.7928012,3.65483961 28.7434171,5.63059628 28.7428323,8.07054013 C28.7434171,10.50992 30.7928012,12.4862406 33.3210572,12.4868047 L33.3210572,11.640777" id="Fill-205"></path>
                            </g>
                        </g>
                    </g>
                    <g id="Group-12" fill="#FFCD00">
                        <polygon id="Fill-121" points="127.187372 18.7889172 134.758898 18.7889172 134.758898 0.0429669957 127.187372 0.0429669957"></polygon>
                        <polyline id="Fill-122" points="93.5546521 5.45650532 98.4105244 23.5629026 105.724619 21.6089929 100.868747 3.50259568"></polyline>
                        <polyline id="Fill-123" points="62.4609173 19.3730757 71.8597054 35.6061369 78.4166472 31.8267318 69.0178591 15.5961885"></polyline>
                        <polyline id="Fill-124" points="36.0438619 40.8383847 49.3243191 54.0902229 54.6799121 48.7497044 41.3969311 35.4978661"></polyline>
                        <polyline id="Fill-125" points="16.0878424 68.3970716 32.3615763 77.7713057 36.1473395 71.229737 19.8736055 61.855503"></polyline>
                        <polyline id="Fill-126" points="3.96330485 100.165729 22.1147773 105.020288 24.0732788 97.7233418 5.92180633 92.8713007"></polyline>
                        <polyline id="Fill-127" points="0.498069627 133.983977 19.2880742 133.989013 19.290598 126.435238 0.500593469 126.430202"></polyline>
                        <polyline id="Fill-128" points="5.92180633 167.550432 24.070755 162.698391 22.1122535 155.403963 3.96330485 160.253486"></polyline>
                        <polyline id="Fill-129" points="19.8710817 198.563712 36.1448156 189.191996 32.3615763 182.64791 16.0853185 192.022144"></polyline>
                        <polyline id="Fill-130" points="41.3843118 224.926385 54.6773882 211.672029 49.3243191 206.328992 36.0337666 219.583349"></polyline>
                        <polyline id="Fill-131" points="225.904933 219.59342 212.624475 206.33151 207.268882 211.672029 220.546816 224.931421"></polyline>
                        <polyline id="Fill-132" points="245.860952 192.034733 229.58217 182.663017 225.798931 189.204586 242.075189 198.57882"></polyline>
                        <polyline id="Fill-133" points="257.982966 160.26104 239.828969 155.408999 237.867944 162.703427 256.02194 167.557986"></polyline>
                        <polygon id="Fill-134" points="242.66072 133.994049 261.453249 133.994049 261.453249 126.440274 242.66072 126.440274"></polygon>
                        <polyline id="Fill-135" points="256.026988 92.8813724 237.878039 97.7308956 239.836541 105.027842 257.98549 100.178318"></polyline>
                        <polyline id="Fill-136" points="242.08276 61.8630568 225.806503 71.2347729 229.592266 77.7788594 245.868524 68.4046254"></polyline>
                        <polyline id="Fill-137" points="220.561959 35.5054199 207.27393 48.7597761 212.626999 54.1028125 225.915028 40.8484564"></polyline>
                        <polyline id="Fill-138" points="192.933459 15.6037423 183.542243 31.8342856 190.099184 35.6111728 199.490401 19.3806295"></polyline>
                        <polyline id="Fill-139" points="161.087619 3.50763152 156.229223 21.6089929 163.543318 23.5629026 168.401714 5.46154117"></polyline>
                    </g>
                </g>
            </g>
        </g>
    </g>
</svg>