<?xml version="1.0" encoding="utf-8"?>
<!-- Generator: Adobe Illustrator 18.0.0, SVG Export Plug-In . SVG Version: 6.00 Build 0)  -->
<!DOCTYPE svg PUBLIC "-//W3C//DTD SVG 1.1//EN" "http://www.w3.org/Graphics/SVG/1.1/DTD/svg11.dtd">
<svg version="1.1" id="Layer_1" xmlns="http://www.w3.org/2000/svg" xmlns:xlink="http://www.w3.org/1999/xlink" x="0px" y="0px"
	 width="128px" height="128px" viewBox="0 0 128 128" style="enable-background:new 0 0 128 128;" xml:space="preserve">
<style type="text/css">
	.st0{fill:#4BAAF4;}
	.st1{clip-path:url(#SVGID_2_);}
	.st2{opacity:0.31;fill:#005B9F;}
	.st3{fill:#C8CCD5;}
	.st4{fill:#ECEFF0;}
	.st5{fill:#333333;}
	.st6{fill:#646464;}
	.st7{fill:#15C3F3;}
	.st8{fill:#90D1C4;}
	.st9{fill:#B7ACAB;}
	.st10{fill:#CFC5FF;}
	.st11{fill:#FFA441;}
	.st12{fill:#E8DBB3;}
	.st13{fill:#E095C0;}
</style>
<g>
	<g>
		<circle class="st0" cx="64" cy="64" r="64"/>
		<g>
			<defs>
				<circle id="SVGID_1_" cx="64" cy="64" r="64"/>
			</defs>
			<clipPath id="SVGID_2_">
				<use xlink:href="#SVGID_1_"  style="overflow:visible;"/>
			</clipPath>
			<g class="st1">
				<polygon class="st2" points="20.2,93.8 54.4,128 128,128 128,51.6 107.7,31.1 				"/>
				<polygon class="st2" points="44.4,104.7 67.7,128 108.5,128 102.3,122.6 74.2,95.2 63.2,104.1 45.3,104.1 				"/>
			</g>
		</g>
		<path class="st3" d="M75.1,104.3l4.3-1.2c0,0-3.5,0-4.1-3.2c0,0,0,0,0,0l-4-18.4H56.1l-4,18.5l0,0c-0.7,3.2-4.1,3.1-4.1,3.1
			l4.3,1.2l2,0h18.8H75.1z"/>
		<path class="st4" d="M81.8,105.1H45.2c-0.6,0-1-0.4-1-1l0,0c0-0.6,0.4-1,1-1h36.6c0.6,0,1,0.4,1,1l0,0
			C82.8,104.6,82.3,105.1,81.8,105.1z"/>
		<path class="st4" d="M103.9,95.2H23.6c-2.6,0-4.8-2.1-4.8-4.8V34.1c0-2.6,2.1-4.8,4.8-4.8h80.3c2.6,0,4.8,2.1,4.8,4.8v56.3
			C108.7,93.1,106.6,95.2,103.9,95.2z"/>
		<path class="st5" d="M108.7,83.9H18.8V34.1c0-2.6,2.1-4.8,4.8-4.8h80.3c2.6,0,4.8,2.1,4.8,4.8V83.9z"/>
		<rect x="22.8" y="33.1" class="st6" width="81.9" height="47"/>
		<circle class="st5" cx="63.8" cy="89.5" r="2.4"/>
		<circle class="st7" cx="64" cy="31.1" r="0.8"/>
	</g>
	<path class="st8" d="M50,46H33c-0.6,0-1-0.4-1-1s0.4-1,1-1h17c0.6,0,1,0.4,1,1S50.6,46,50,46z"/>
	<path class="st9" d="M50,76H33c-0.6,0-1-0.4-1-1s0.4-1,1-1h17c0.6,0,1,0.4,1,1S50.6,76,50,76z"/>
	<g>
		<path class="st10" d="M57,51H33c-0.6,0-1-0.4-1-1s0.4-1,1-1h24c0.6,0,1,0.4,1,1S57.6,51,57,51z"/>
		<path class="st9" d="M69,51h-7c-0.6,0-1-0.4-1-1s0.4-1,1-1h7c0.6,0,1,0.4,1,1S69.6,51,69,51z"/>
	</g>
	<g>
		<path class="st11" d="M57,71H33c-0.6,0-1-0.4-1-1s0.4-1,1-1h24c0.6,0,1,0.4,1,1S57.6,71,57,71z"/>
		<path class="st8" d="M69,71h-7c-0.6,0-1-0.4-1-1s0.4-1,1-1h7c0.6,0,1,0.4,1,1S69.6,71,69,71z"/>
	</g>
	<g>
		<g>
			<path class="st11" d="M90,56h-7c-0.6,0-1-0.4-1-1s0.4-1,1-1h7c0.6,0,1,0.4,1,1S90.6,56,90,56z"/>
		</g>
		<path class="st12" d="M47,56h-7c-0.6,0-1-0.4-1-1s0.4-1,1-1h7c0.6,0,1,0.4,1,1S47.6,56,47,56z"/>
		<path class="st9" d="M78,56H52c-0.6,0-1-0.4-1-1s0.4-1,1-1h26c0.6,0,1,0.4,1,1S78.6,56,78,56z"/>
	</g>
	<g>
		<g>
			<path class="st9" d="M90,61h-7c-0.6,0-1-0.4-1-1s0.4-1,1-1h7c0.6,0,1,0.4,1,1S90.6,61,90,61z"/>
		</g>
		<path class="st12" d="M47,61h-7c-0.6,0-1-0.4-1-1s0.4-1,1-1h7c0.6,0,1,0.4,1,1S47.6,61,47,61z"/>
		<path class="st10" d="M78,61H52c-0.6,0-1-0.4-1-1s0.4-1,1-1h26c0.6,0,1,0.4,1,1S78.6,61,78,61z"/>
	</g>
	<g>
		<path class="st13" d="M90,79h-7c-0.6,0-1-0.4-1-1s0.4-1,1-1h7c0.6,0,1,0.4,1,1S90.6,79,90,79z"/>
	</g>
	<g>
		<g>
			<path class="st8" d="M90,66h-7c-0.6,0-1-0.4-1-1s0.4-1,1-1h7c0.6,0,1,0.4,1,1S90.6,66,90,66z"/>
		</g>
		<path class="st12" d="M47,66h-7c-0.6,0-1-0.4-1-1s0.4-1,1-1h7c0.6,0,1,0.4,1,1S47.6,66,47,66z"/>
		<path class="st9" d="M78,66H52c-0.6,0-1-0.4-1-1s0.4-1,1-1h26c0.6,0,1,0.4,1,1S78.6,66,78,66z"/>
	</g>
</g>
</svg>
