<?xml version="1.0" encoding="utf-8"?>
<!-- Generator: Adobe Illustrator 18.0.0, SVG Export Plug-In . SVG Version: 6.00 Build 0)  -->
<!DOCTYPE svg PUBLIC "-//W3C//DTD SVG 1.1//EN" "http://www.w3.org/Graphics/SVG/1.1/DTD/svg11.dtd">
<svg version="1.1" xmlns="http://www.w3.org/2000/svg" xmlns:xlink="http://www.w3.org/1999/xlink" x="0px" y="0px" width="128px"
	 height="128px" viewBox="0 0 128 128" enable-background="new 0 0 128 128" xml:space="preserve">
<g id="Layer_1">
	<g>
		<circle fill="#59515C" cx="64" cy="64" r="64"/>
		<g>
			<defs>
				<circle id="SVGID_21_" cx="64" cy="64" r="64"/>
			</defs>
			<clipPath id="SVGID_2_">
				<use xlink:href="#SVGID_21_"  overflow="visible"/>
			</clipPath>
			<polygon clip-path="url(#SVGID_2_)" fill="#483F4B" points="29.012,71.051 40.705,82.745 38,89.352 76.648,128 128,128 128,74 
				85.023,31.209 			"/>
		</g>
		<g>
			<g>
				<path fill="#E6E5DB" d="M36.423,54.58l-8.166,14.344c-0.45,0.791-0.114,1.856,0.754,2.127c0.187,0.058,0.396,0.094,0.629,0.094
					c1.384,0,4.706-0.277,5.537,0.692c0.831,0.969,0.692,3.737,0.692,3.737l-1.246,2.907l1.717,0.843
					c0.4,0.196,0.484,0.73,0.165,1.04l-0.913,0.886l1.384,1.384l-1.087,3.985c-0.098,0.359,0.01,0.743,0.28,0.999L38,89.352
					c0.228,0.216,0.543,0.313,0.853,0.264l15.494-2.459c0.81-0.129,1.576,0.412,1.726,1.219l2.892,15.572
					c0.228,1.227,1.512,1.948,2.678,1.504l27.982-10.66c0.981-0.374,1.508-1.442,1.203-2.446
					c-1.322-4.358-4.514-15.422-3.741-18.293c0.969-3.599,12.043-22.979,0.969-39.036S60.865,22.071,56.818,22.881
					c-5.998,1.2-13.843,6.552-17.182,11.905c-2.794,4.478-3.427,8.883-3.213,12.274c0.145,2.296-1.523,2.907-1.523,4.291
					S37.106,53.011,36.423,54.58z"/>
			</g>
		</g>
		<g>
			<g>
				<path fill="#59515C" d="M77.52,38.131c-0.984,0-1.97-0.354-2.765-1.036c-3.658-3.134-8.24-4.27-13.957-3.377
					c-1.302,0.203-2.632-0.228-3.555-1.149l-8.072-8.072l1.414-1.414l8.072,8.072c0.472,0.472,1.155,0.693,1.833,0.587
					c1.319-0.206,2.61-0.311,3.835-0.311c4.638,0,8.475,1.356,11.73,4.146c0.679,0.582,1.604,0.719,2.355,0.351l8.982-4.395
					l0.879,1.797l-8.982,4.395C78.73,37.997,78.125,38.131,77.52,38.131z"/>
			</g>
			<polygon fill="#59515C" points="74.589,100.519 66.198,67.748 68.136,67.252 76.47,99.803 			"/>
			
				<rect x="38.637" y="36.998" transform="matrix(0.7071 0.7071 -0.7071 0.7071 40.9969 -22.98)" fill="#59515C" width="19.201" height="2"/>
		</g>
		<g>
			<g>
				<path fill="#E6E5DB" d="M61.667,69.002c-7.17,0-13.003-5.833-13.003-13.002s5.833-13.002,13.003-13.002
					c7.169,0,13.002,5.833,13.002,13.002S68.836,69.002,61.667,69.002z"/>
				<path fill="#59515C" d="M61.667,43.998c6.629,0,12.002,5.374,12.002,12.002s-5.374,12.002-12.002,12.002
					S49.664,62.629,49.664,56S55.038,43.998,61.667,43.998 M61.667,41.998c-7.721,0-14.002,6.281-14.002,14.002
					s6.281,14.002,14.002,14.002S75.669,63.721,75.669,56S69.388,41.998,61.667,41.998L61.667,41.998z"/>
			</g>
			<circle fill="#59515C" cx="61.667" cy="56" r="9.002"/>
			<path fill="#FFCE04" d="M61.667,48.998V56h7.002C68.669,52.133,65.534,48.998,61.667,48.998z M61.667,63.002V56h-7.002
				C54.664,59.867,57.799,63.002,61.667,63.002z"/>
		</g>
		<g>
			<path fill="#C0D72F" d="M71.667,89.5c-2.481,0-4.5-2.019-4.5-4.5s2.019-4.5,4.5-4.5s4.5,2.019,4.5,4.5S74.148,89.5,71.667,89.5z"
				/>
			<path fill="#59515C" d="M71.667,82c1.657,0,3,1.343,3,3s-1.343,3-3,3s-3-1.343-3-3S70.01,82,71.667,82 M71.667,79
				c-3.308,0-6,2.692-6,6s2.692,6,6,6s6-2.692,6-6S74.975,79,71.667,79L71.667,79z"/>
		</g>
		<g>
			<g>
				<circle fill="#37C2F2" cx="82.249" cy="47.5" r="2.5"/>
				<path fill="#59515C" d="M82.249,46c0.828,0,1.5,0.672,1.5,1.5s-0.672,1.5-1.5,1.5s-1.5-0.672-1.5-1.5S81.42,46,82.249,46
					 M82.249,44c-1.93,0-3.5,1.57-3.5,3.5s1.57,3.5,3.5,3.5s3.5-1.57,3.5-3.5S84.179,44,82.249,44L82.249,44z"/>
			</g>
			<g>
				<circle fill="#37C2F2" cx="80.249" cy="67.5" r="2.5"/>
				<path fill="#59515C" d="M80.249,66c0.828,0,1.5,0.672,1.5,1.5s-0.672,1.5-1.5,1.5s-1.5-0.672-1.5-1.5S79.42,66,80.249,66
					 M80.249,64c-1.93,0-3.5,1.57-3.5,3.5c0,1.93,1.57,3.5,3.5,3.5s3.5-1.57,3.5-3.5C83.749,65.57,82.179,64,80.249,64L80.249,64z"
					/>
			</g>
			<g>
				<circle fill="#37C2F2" cx="84.249" cy="57.5" r="2.5"/>
				<path fill="#59515C" d="M84.249,56c0.828,0,1.5,0.672,1.5,1.5s-0.672,1.5-1.5,1.5s-1.5-0.672-1.5-1.5S83.42,56,84.249,56
					 M84.249,54c-1.93,0-3.5,1.57-3.5,3.5s1.57,3.5,3.5,3.5s3.5-1.57,3.5-3.5S86.179,54,84.249,54L84.249,54z"/>
			</g>
		</g>
		<circle fill="#59515C" cx="84.167" cy="90.5" r="2.5"/>
	</g>
</g>
<g id="Layer_2">
</g>
</svg>
