<?xml version="1.0" encoding="UTF-8"?>
<svg width="174px" height="46px" viewBox="0 0 174 46" version="1.1" xmlns="http://www.w3.org/2000/svg" xmlns:xlink="http://www.w3.org/1999/xlink">
    <title>logo-bleu</title>
    <g id="Page-1" stroke="none" stroke-width="1" fill="none" fill-rule="evenodd">
        <g id="logo-bleu" fill="#FFFFFF" fill-rule="nonzero">
            <path d="M9.76,45.116 C8.00521688,45.1393717 6.27932805,44.6680446 4.78,43.756 C3.26008814,42.80495 2.04527267,41.4374148 1.28,39.816 C0.386170769,37.9094049 -0.0520368292,35.8210719 6.66133815e-16,33.716 C-0.0341959692,29.8100647 0.856765484,25.9515162 2.6,22.456 C4.32337285,19.0133578 6.98600623,16.1288383 10.28,14.136 C13.970067,11.9619146 18.1988505,10.8735228 22.48,10.996 C23.7980693,11.0023876 25.1142739,11.095925 26.42,11.276 C27.7161612,11.4396399 28.9947584,11.7207974 30.24,12.116 C30.9619264,12.292738 31.4410398,12.9771857 31.36,13.716 C31.3473073,14.4425096 31.0699635,15.1394247 30.58,15.676 C30.1469737,16.2460883 29.4758206,16.5853525 28.76,16.596 C28.5990027,16.6008412 28.4379753,16.5874222 28.28,16.556 C26.8933333,16.236 25.7066667,16.0026667 24.72,15.856 C23.6868279,15.7060161 22.6439959,15.6324831 21.6,15.636 C18.5348819,15.5426129 15.5162346,16.4020889 12.96,18.096 C10.6052035,19.7132993 8.75985786,21.967951 7.64,24.596 C6.45446104,27.3490043 5.85507653,30.3186821 5.88,33.316 C5.76738516,35.1661542 6.23589694,37.0052378 7.22,38.576 C7.99311819,39.7523167 9.31247455,40.4534604 10.72,40.436 C12.37014,40.4257335 13.9334752,39.6952031 15,38.436 C16.5392363,36.5205803 17.6814656,34.3177095 18.36,31.956 C19.6236048,27.9722843 20.6257367,23.9103098 21.36,19.796 C21.4394955,19.1723052 21.7909816,18.6157856 22.32,18.276 C22.916238,17.9834995 23.5765603,17.8459324 24.24,17.876 C26.1333333,17.876 27.08,18.4893333 27.08,19.716 C27.0718087,19.9864767 27.0315267,20.2550237 26.96,20.516 C26.2666667,23.1026667 25.6333333,25.9626667 25.06,29.096 C24.575431,31.4479683 24.2877683,33.8362378 24.2,36.236 C24.1201339,37.3216304 24.3416067,38.4082314 24.84,39.376 C25.2696023,40.0313189 26.0179835,40.4055095 26.8,40.356 C27.6856796,40.3449137 28.5431045,40.0427065 29.24,39.496 C30.3157084,38.6232845 31.2946475,37.6376404 32.16,36.556 C32.4158466,36.2145003 32.8134702,36.0083251 33.24,35.996 C33.5809619,35.9924429 33.8961708,36.1769554 34.06,36.476 C34.2804218,36.8796859 34.3842882,37.3366982 34.36,37.796 C34.4075385,38.6864842 34.1383014,39.5650473 33.6,40.276 C32.5016651,41.6561569 31.2080742,42.8688983 29.76,43.876 C28.3838593,44.7370392 26.7824587,45.1687211 25.16,45.116 C23.4989506,45.1912138 21.8751074,44.609217 20.64,43.496 C19.4176153,42.2611365 18.6552766,40.6446962 18.48,38.916 C16.5066667,43.0493333 13.6,45.116 9.76,45.116 Z M46.28,35.996 C46.6209619,35.9924429 46.9361708,36.1769554 47.1,36.476 C47.3204218,36.8796859 47.4242882,37.3366982 47.4,37.796 C47.4562403,38.68753 47.186095,39.5690567 46.64,40.276 C45.5731493,41.6153675 44.3126356,42.7882519 42.9,43.756 C41.5471694,44.6645617 39.9494496,45.1389938 38.32,45.116 C36.09607,45.1913397 34.0418525,43.9320493 33.1,41.916 C31.8691367,39.3350749 31.2856431,36.4931176 31.4,33.636 C31.4533965,29.8969236 31.8754393,26.1722286 32.66,22.516 C33.3525215,18.7755742 34.6067009,15.1613799 36.38,11.796 C38.02,8.80933333 39.9733333,7.31564567 42.24,7.31564567 C43.4989465,7.30307695 44.6615436,7.98831629 45.26,9.096 C46.0828087,10.6646336 46.4630707,12.4276669 46.36,14.196 C46.2124031,18.0135052 45.3153775,21.7647032 43.72,25.236 C41.8300404,29.6494053 39.4268173,33.8248376 36.56,37.676 C36.6455596,38.5257825 36.9639052,39.3354877 37.48,40.016 C37.9102866,40.4843584 38.524455,40.7402619 39.16,40.716 C40.1981903,40.7341056 41.2123917,40.4030816 42.04,39.776 C43.2011496,38.8140683 44.2600763,37.7350353 45.2,36.556 C45.4558466,36.2145003 45.8534702,36.0083251 46.28,35.996 L46.28,35.996 Z M41.36,11.276 C40.7466667,11.276 40.0533333,12.3826667 39.28,14.596 C38.3870402,17.2855201 37.7049764,20.0405228 37.24,22.836 C36.669832,25.9521818 36.3488166,29.1088333 36.28,32.276 C38.0993879,29.3099008 39.6137777,26.1672067 40.8,22.896 C41.8456874,20.1528737 42.4138994,17.2509335 42.48,14.316 C42.48,12.2893333 42.1066667,11.276 41.36,11.276 Z M62,35.996 C62.3409619,35.9924429 62.6561708,36.1769554 62.82,36.476 C63.0404218,36.8796859 63.1442882,37.3366982 63.12,37.796 C63.1762403,38.68753 62.906095,39.5690567 62.36,40.276 C61.1823293,41.6299271 59.7653592,42.7553675 58.18,43.596 C56.4191667,44.5988152 54.4263576,45.1228757 52.4,45.116 C50.0084454,45.2640382 47.6581276,44.4421479 45.88,42.836 C44.2750761,41.1675501 43.4348666,38.9076764 43.56,36.596 C43.5463591,34.8162707 43.9433102,33.0573667 44.72,31.456 C45.4392332,29.9328112 46.5505296,28.628246 47.94,27.676 C49.3131469,26.7427839 50.9398966,26.2540608 52.6,26.276 C53.9759992,26.2114318 55.3190192,26.7096489 56.32,27.656 C57.2845152,28.6549605 57.7914645,30.0092396 57.72,31.396 C57.7427418,33.1816048 57.0261268,34.8971378 55.74,36.136 C54.42,37.456 52.1866667,38.5026667 49.04,39.276 C49.7066667,40.5026667 50.9733333,41.116 52.84,41.116 C54.2900515,41.0427451 55.69907,40.6097297 56.94,39.856 C58.4663003,39.0218301 59.8175933,37.9014113 60.92,36.556 C61.1758466,36.2145003 61.5734702,36.0083251 62,35.996 Z M51.92,30.196 C50.8316312,30.2597541 49.868586,30.9223291 49.42,31.916 C48.7090114,33.1844979 48.356427,34.6224894 48.4,36.076 L48.4,36.156 C49.7513231,35.8852449 51.0233902,35.3107631 52.12,34.476 C52.9548923,33.8696232 53.4580894,32.9076288 53.48,31.876 C53.5016275,31.430521 53.3512676,30.9937611 53.06,30.656 C52.7656673,30.3431679 52.3490183,30.1750463 51.92,30.196 L51.92,30.196 Z M82.96,35.996 C83.3009619,35.9924429 83.6161708,36.1769554 83.78,36.476 C84.0004218,36.8796859 84.1042882,37.3366982 84.08,37.796 C84.1362403,38.68753 83.866095,39.5690567 83.32,40.276 C82.20658,41.6091141 80.9064993,42.7744715 79.46,43.736 C78.0528542,44.6581407 76.4022269,45.1387031 74.72,45.116 C73.4713734,45.139821 72.2336225,44.8799617 71.1,44.356 C70.0830665,43.8808689 69.2177072,43.1331985 68.6,42.196 C67.3658402,43.966237 65.3576353,45.0372796 63.2,45.076 C61.9136026,45.144274 60.6555663,44.681548 59.72,43.796 C58.8449107,42.886292 58.3821,41.656951 58.44,40.396 C58.3862171,39.2446956 58.7091991,38.1072374 59.36,37.156 C59.9642382,36.3332362 60.9403372,35.8677121 61.96,35.916 C62.92,35.916 63.4,36.276 63.4,36.996 C63.4,37.1826667 63.3733333,37.516 63.32,37.996 C63.24,38.956 63.2,39.5026667 63.2,39.636 C63.2,40.436 63.5466667,40.836 64.24,40.836 C64.8411126,40.782269 65.3819297,40.4488886 65.7,39.936 C66.2349319,39.194475 66.6282039,38.3604671 66.86,37.476 C67.1774165,36.3573074 67.3323349,35.1987873 67.32,34.036 C67.3415697,33.2145406 67.2197454,32.3956108 66.96,31.616 C66.72,30.9626667 66.4266667,30.636 66.08,30.636 C65.8450528,30.6146929 65.6121896,30.6947396 65.44,30.856 C65.2647983,31.0776276 65.1294508,31.3280206 65.04,31.596 C64.9069598,31.9802217 64.6880814,32.3290591 64.4,32.616 C63.9963569,32.9113835 63.4975966,33.0467612 63,32.996 C62.4623895,33.0178726 61.9451152,32.788794 61.6,32.376 C61.2112107,31.8223043 61.0273513,31.1505103 61.08,30.476 C61.0146465,29.2807613 61.4663331,28.1151183 62.32,27.276 C63.1936498,26.4852787 64.3425982,26.0687849 65.52,26.116 C66.5897378,26.1023742 67.6422207,26.3862676 68.56,26.936 C69.4803078,27.4980748 70.2062391,28.3287077 70.64,29.316 C71.3521412,28.3268055 72.2741351,27.5072554 73.34,26.916 C74.2385524,26.4097942 75.2488434,26.1348851 76.28,26.116 C77.1347181,26.0566053 77.9815337,26.3127848 78.66,26.836 C79.2594921,27.4521833 79.5591362,28.2999567 79.48,29.156 C79.5345905,30.1423275 79.2981278,31.1229521 78.8,31.976 C78.4710094,32.5809958 77.8481086,32.9684096 77.16,32.996 C76.7273966,33.0474643 76.2928353,32.9170959 75.96,32.636 C75.7170591,32.3339886 75.552208,31.9768112 75.48,31.596 C75.4496967,31.3421984 75.3680383,31.0972233 75.24,30.876 C75.1078511,30.7039558 74.8957209,30.6130428 74.68,30.636 C74.36,30.636 74.02,30.936 73.66,31.536 C73.2424474,32.2818917 72.9327014,33.0831911 72.74,33.916 C72.4841953,34.9225791 72.3565188,35.9574311 72.36,36.996 C72.2920906,38.0405796 72.6126229,39.0734059 73.26,39.896 C73.8857579,40.5874041 74.7885927,40.9617502 75.72,40.916 C76.7916095,40.9049553 77.8278943,40.5313288 78.66,39.856 C79.8501139,38.8763353 80.9298311,37.7697929 81.88,36.556 C82.1358466,36.2145003 82.5334702,36.0083251 82.96,35.996 Z M85.36,45.116 C83.8303317,45.1723918 82.3633223,44.5055694 81.4,43.316 C80.3642589,41.967067 79.839908,40.2948129 79.92,38.596 C79.9141855,36.4858201 80.4221423,34.4059431 81.4,32.536 C82.3208989,30.7058648 83.673092,29.1271622 85.34,27.936 C86.8520793,26.8183209 88.6797291,26.2091043 90.56,26.196 C90.9832936,26.1430051 91.4098023,26.2658975 91.74,26.536 C91.998989,26.8984073 92.1701629,27.3160714 92.24,27.756 C92.8203337,27.6474671 93.4096084,27.5938967 94,27.596 C95.3066667,27.596 95.96,28.0626667 95.96,28.996 C95.8501802,30.3413091 95.649725,31.6776767 95.36,32.996 C94.8759095,35.1000408 94.5681759,37.2407965 94.44,39.396 C94.4223484,39.7415326 94.5287447,40.0820008 94.74,40.356 C94.9294994,40.5912426 95.2180426,40.7244164 95.52,40.716 C96.2296703,40.616417 96.8813464,40.2693286 97.36,39.736 C98.3993014,38.7385223 99.3745755,37.6764087 100.28,36.556 C100.535847,36.2145003 100.93347,36.0083251 101.36,35.996 C101.700962,35.9924429 102.016171,36.1769554 102.18,36.476 C102.400422,36.8796859 102.504288,37.3366982 102.48,37.796 C102.53624,38.68753 102.266095,39.5690567 101.72,40.276 C100.704054,41.5597801 99.5354389,42.7149623 98.24,43.716 C97.2404519,44.5629202 95.9886909,45.0551858 94.68,45.116 C93.792009,45.1131338 92.9340734,44.7940668 92.26,44.216 C91.4911316,43.5641145 90.9167736,42.7129576 90.6,41.756 C89.2133333,43.996 87.4666667,45.116 85.36,45.116 Z M86.8,41.076 C87.4929326,41.0144471 88.1159254,40.628785 88.48,40.036 C89.0685697,39.2145301 89.4650037,38.2712906 89.64,37.276 L91.12,29.916 C89.9698361,29.9545881 88.8709435,30.4012348 88.02,31.176 C87.0248992,32.0575394 86.2507761,33.1604935 85.76,34.396 C85.1981489,35.7385957 84.9124684,37.1806021 84.92,38.636 C84.8691448,39.2886737 85.0458165,39.9388259 85.42,40.476 C85.7616169,40.879785 86.2717095,41.1015644 86.8,41.076 L86.8,41.076 Z M102.08,45.116 C101.085796,45.1314358 100.206428,44.473964 99.94,43.516 C99.4456922,41.8565895 99.2360599,40.1254328 99.32,38.396 C99.3023881,35.0461586 99.8015907,31.7136439 100.8,28.516 C100.979976,27.8276466 101.39805,27.2253367 101.98,26.816 C102.678411,26.4176132 103.477268,26.2300556 104.28,26.276 C104.664293,26.2457989 105.049911,26.3146591 105.4,26.476 C105.634537,26.6541625 105.756462,26.9437328 105.72,27.236 C105.613292,28.2130945 105.412357,29.1775822 105.12,30.116 C104.853333,31.1826667 104.64,32.116 104.48,32.916 C104.295367,33.8950529 104.161853,34.8830579 104.08,35.876 C104.800621,33.8804007 105.796948,31.9954571 107.04,30.276 C107.904345,29.051011 108.997824,28.0050745 110.26,27.196 C111.12871,26.6391487 112.129153,26.3217666 113.16,26.276 C113.875895,26.1745345 114.597831,26.4156221 115.109105,26.9268954 C115.620378,27.4381687 115.861466,28.1601051 115.76,28.876 C115.63449,30.7783752 115.339996,32.6658141 114.88,34.516 C114.498124,36.0253089 114.243894,37.5640679 114.12,39.116 C114.12,40.1826667 114.506667,40.716 115.28,40.716 C116.008851,40.6228644 116.681575,40.2758803 117.18,39.736 C118.23047,38.7433931 119.212705,37.6809758 120.12,36.556 C120.375847,36.2145003 120.77347,36.0083251 121.2,35.996 C121.540962,35.9924429 121.856171,36.1769554 122.02,36.476 C122.240422,36.8796859 122.344288,37.3366982 122.32,37.796 C122.37624,38.68753 122.106095,39.5690567 121.56,40.276 C120.50039,41.6078537 119.254229,42.7799195 117.86,43.756 C116.536728,44.6637691 114.964546,45.1389172 113.36,45.116 C112.209118,45.1990658 111.080773,44.7667781 110.28,43.936 C109.525358,42.9622683 109.155195,41.7450019 109.24,40.516 C109.31836,39.1697336 109.505639,37.8320263 109.8,36.516 C110.071788,35.3728609 110.245749,34.2086561 110.32,33.036 C110.32,32.6093333 110.173333,32.396 109.88,32.396 C109.533333,32.396 109.046667,32.8426667 108.42,33.736 C107.670547,34.8532659 107.027723,36.0384739 106.5,37.276 C105.836447,38.7726227 105.307686,40.3254399 104.92,41.916 C104.772237,42.8277392 104.423851,43.6952881 103.9,44.456 C103.419977,44.9330445 102.754221,45.1744724 102.08,45.116 Z M141.8,35.996 C142.140962,35.9924429 142.456171,36.1769554 142.62,36.476 C142.840422,36.8796859 142.944288,37.3366982 142.92,37.796 C142.97624,38.68753 142.706095,39.5690567 142.16,40.276 C141.112186,41.5661808 139.902184,42.7156823 138.56,43.696 C137.451729,44.5719531 136.091881,45.0696295 134.68,45.116 C132.653333,45.116 131.106667,43.9293333 130.04,41.556 C129.237575,42.6707386 128.241829,43.6326159 127.1,44.396 C126.200602,44.8909663 125.186334,45.1393584 124.16,45.116 C122.612985,45.1520758 121.133599,44.4823042 120.14,43.296 C119.045749,41.9654998 118.4829,40.2769505 118.56,38.556 C118.542918,36.4969273 119.008709,34.4625159 119.92,32.616 C120.783743,30.84071 122.067519,29.3029242 123.66,28.136 C125.224058,26.984708 127.067958,26.273391 129,26.076 C129.363023,21.5452607 130.338573,17.0846449 131.9,12.816 C133.326667,9.14933333 135.2,7.316 137.52,7.316 C138.675488,7.32010701 139.750964,7.90673014 140.38,8.876 C141.239833,10.2932273 141.638188,11.9425557 141.52,13.596 C141.3976,17.1901952 140.653253,20.7359915 139.32,24.076 C137.72453,28.3469198 135.756968,32.4694314 133.44,36.396 C133.454115,37.5377793 133.691933,38.6657164 134.14,39.716 C134.366212,40.2894742 134.904597,40.6796085 135.52,40.716 C136.345254,40.6723969 137.126787,40.3313644 137.72,39.756 C138.798849,38.7660917 139.801681,37.6964051 140.72,36.556 C140.975847,36.2145003 141.37347,36.0083251 141.8,35.996 Z M137.08,11.236 C136.573333,11.236 136.066667,12.136 135.56,13.936 C134.955657,16.2546105 134.521172,18.6141992 134.26,20.996 C133.9,23.9026667 133.64,26.9426667 133.48,30.116 C136.466667,23.6093333 137.96,18.3826667 137.96,14.436 C137.986148,13.6409663 137.898597,12.8462737 137.7,12.076 C137.526667,11.516 137.32,11.236 137.08,11.236 Z M125.56,41.076 C126.123646,41.0537462 126.661592,40.834321 127.08,40.456 C127.815738,39.7746084 128.461007,39.0016306 129,38.156 C128.719913,36.5581678 128.586026,34.9381347 128.6,33.316 C128.6,32.676 128.626667,31.636 128.68,30.196 C127.145354,30.7025223 125.845502,31.7466658 125.02,33.136 C124.050462,34.629441 123.542635,36.3755316 123.56,38.156 C123.56,40.1026667 124.226667,41.076 125.56,41.076 Z M157.52,35.996 C157.860962,35.9924429 158.176171,36.1769554 158.34,36.476 C158.560422,36.8796859 158.664288,37.3366982 158.64,37.796 C158.69624,38.68753 158.426095,39.5690567 157.88,40.276 C156.702329,41.6299271 155.285359,42.7553675 153.7,43.596 C151.939167,44.5988152 149.946358,45.1228757 147.92,45.116 C145.528445,45.2640382 143.178128,44.4421479 141.4,42.836 C139.795076,41.1675501 138.954867,38.9076764 139.08,36.596 C139.066359,34.8162707 139.46331,33.0573667 140.24,31.456 C140.959233,29.9328112 142.07053,28.628246 143.46,27.676 C144.833147,26.7427839 146.459897,26.2540608 148.12,26.276 C149.495999,26.2114318 150.839019,26.7096489 151.84,27.656 C152.804515,28.6549605 153.311465,30.0092396 153.24,31.396 C153.262742,33.1816048 152.546127,34.8971378 151.26,36.136 C149.94,37.456 147.706667,38.5026667 144.56,39.276 C145.226667,40.5026667 146.493333,41.116 148.36,41.116 C149.810052,41.0427451 151.21907,40.6097297 152.46,39.856 C153.9863,39.0218301 155.337593,37.9014113 156.44,36.556 C156.695847,36.2145003 157.09347,36.0083251 157.52,35.996 Z M147.44,30.196 C146.351631,30.2597541 145.388586,30.9223291 144.94,31.916 C144.229011,33.1844979 143.876427,34.6224894 143.92,36.076 L143.92,36.156 C145.271323,35.8852449 146.54339,35.3107631 147.64,34.476 C148.474892,33.8696232 148.978089,32.9076288 149,31.876 C149.021628,31.430521 148.871268,30.9937611 148.58,30.656 C148.285667,30.3431679 147.869018,30.1750463 147.44,30.196 L147.44,30.196 Z M171.56,31.756 C172.124164,31.7466626 172.667069,31.9710636 173.06,32.376 C173.47032,32.7817851 173.694695,33.3391049 173.68,33.916 C173.671959,34.3011994 173.590503,34.6813281 173.44,35.036 C173.037499,35.9894131 172.421717,36.8378244 171.64,37.516 C170.93967,38.1544068 170.027627,38.5106735 169.08,38.516 C168.36237,38.5282661 167.672723,38.2378885 167.18,37.716 C166.640006,37.1302509 166.358831,36.3516136 166.4,35.556 C166.4,35.0493333 166.426667,34.5026667 166.48,33.916 C166.521874,33.6242483 166.548576,33.3305199 166.56,33.036 C166.572987,32.864327 166.523242,32.693773 166.42,32.556 C166.336644,32.4540592 166.21168,32.3952528 166.08,32.396 C165.706667,32.396 165.2,32.8426667 164.56,33.736 C163.800483,34.8471491 163.157107,36.033374 162.64,37.276 C161.98895,38.7754722 161.467056,40.3277713 161.08,41.916 C160.938082,42.8322467 160.596711,43.7061566 160.08,44.476 C159.589419,44.9475718 158.917334,45.1813404 158.24,45.116 C157.245796,45.1314358 156.366428,44.473964 156.1,43.516 C155.605711,41.8565855 155.396079,40.1254321 155.48,38.396 C155.462388,35.0461586 155.961591,31.7136439 156.96,28.516 C157.139976,27.8276466 157.55805,27.2253367 158.14,26.816 C158.838411,26.4176132 159.637268,26.2300556 160.44,26.276 C160.824293,26.2457989 161.209911,26.3146591 161.56,26.476 C161.794537,26.6541625 161.916462,26.9437328 161.88,27.236 C161.773285,28.2130935 161.572351,29.1775806 161.28,30.116 C161.013333,31.1826667 160.8,32.116 160.64,32.916 C160.455379,33.8950549 160.321865,34.8830592 160.24,35.876 C160.960621,33.8804007 161.956948,31.9954571 163.2,30.276 C164.061203,29.0552705 165.147261,28.009939 166.4,27.196 C167.248123,26.642475 168.228412,26.3249167 169.24,26.276 C169.900234,26.2325795 170.547673,26.4726415 171.02,26.936 C171.468714,27.4787333 171.690795,28.1736298 171.64,28.876 C171.573935,29.8465938 171.426754,30.8099559 171.2,31.756 L171.56,31.756 Z" id="Name"></path>
            <path d="M80.448,12.277 L70.868,8.016 L70.868,6.989 L80.447,2.731 L80.447,4.225 L72.894,7.504 L80.448,10.783 L80.448,12.277 Z M89.811,0 L83.86,15.439 L82.423,15.439 L88.35,0 L89.811,0 Z M102.196,8.016 L92.616,12.277 L92.616,10.783 L100.17,7.504 L92.616,4.225 L92.616,2.731 L102.195,6.989 L102.196,8.016 Z" id="Path_1"></path>
        </g>
    </g>
</svg>